<mxfile host="app.diagrams.net" agent="Mozilla/5.0 (Windows NT 10.0; Win64; x64) AppleWebKit/537.36 (KHTML, like Gecko) Chrome/133.0.0.0 Safari/537.36" version="26.0.14">
  <diagram id="C5RBs43oDa-KdzZeNtuy" name="Page-1">
    <mxGraphModel dx="811" dy="2645" grid="1" gridSize="10" guides="1" tooltips="1" connect="1" arrows="1" fold="1" page="1" pageScale="1" pageWidth="827" pageHeight="1169" math="0" shadow="0">
      <root>
        <mxCell id="WIyWlLk6GJQsqaUBKTNV-0" />
        <mxCell id="WIyWlLk6GJQsqaUBKTNV-1" parent="WIyWlLk6GJQsqaUBKTNV-0" />
        <mxCell id="zkfFHV4jXpPFQw0GAbJ--0" value="gui.CarController&#xa;" style="swimlane;fontStyle=1;align=center;verticalAlign=top;childLayout=stackLayout;horizontal=1;startSize=26;horizontalStack=0;resizeParent=1;resizeLast=0;collapsible=1;marginBottom=0;rounded=0;shadow=0;strokeWidth=1;" parent="WIyWlLk6GJQsqaUBKTNV-1" vertex="1">
          <mxGeometry x="744.17" y="304" width="160" height="226" as="geometry">
            <mxRectangle x="230" y="140" width="160" height="26" as="alternateBounds" />
          </mxGeometry>
        </mxCell>
        <mxCell id="zkfFHV4jXpPFQw0GAbJ--1" value="-cars: ArrayList&lt;Car&gt;&#xa;-frame: CarView" style="text;align=left;verticalAlign=top;spacingLeft=4;spacingRight=4;overflow=hidden;rotatable=0;points=[[0,0.5],[1,0.5]];portConstraint=eastwest;" parent="zkfFHV4jXpPFQw0GAbJ--0" vertex="1">
          <mxGeometry y="26" width="160" height="44" as="geometry" />
        </mxCell>
        <mxCell id="zkfFHV4jXpPFQw0GAbJ--4" value="" style="line;html=1;strokeWidth=1;align=left;verticalAlign=middle;spacingTop=-1;spacingLeft=3;spacingRight=3;rotatable=0;labelPosition=right;points=[];portConstraint=eastwest;" parent="zkfFHV4jXpPFQw0GAbJ--0" vertex="1">
          <mxGeometry y="70" width="160" height="8" as="geometry" />
        </mxCell>
        <mxCell id="zkfFHV4jXpPFQw0GAbJ--5" value="+main(): void&#xa;~gas(): void&#xa;~brake(): void&#xa;~startAllCars(): void&#xa;~stopAllCars(): void&#xa;~turboOn(): void&#xa;~turboOff(): void&#xa;~liftBed(): void&#xa;~lowerBed(): void" style="text;align=left;verticalAlign=top;spacingLeft=4;spacingRight=4;overflow=hidden;rotatable=0;points=[[0,0.5],[1,0.5]];portConstraint=eastwest;" parent="zkfFHV4jXpPFQw0GAbJ--0" vertex="1">
          <mxGeometry y="78" width="160" height="142" as="geometry" />
        </mxCell>
        <mxCell id="l2UFIXcgOA9KmyzxAS9a-17" value="car.Car" style="swimlane;fontStyle=1;align=center;verticalAlign=top;childLayout=stackLayout;horizontal=1;startSize=26;horizontalStack=0;resizeParent=1;resizeParentMax=0;resizeLast=0;collapsible=1;marginBottom=0;whiteSpace=wrap;html=1;" parent="WIyWlLk6GJQsqaUBKTNV-1" vertex="1">
          <mxGeometry x="500" y="390" width="160" height="260" as="geometry" />
        </mxCell>
        <mxCell id="l2UFIXcgOA9KmyzxAS9a-18" value="-currentSpeed: double&lt;div&gt;-x: double&lt;/div&gt;&lt;div&gt;-y: double&lt;/div&gt;&lt;div&gt;-direction: int&lt;/div&gt;" style="text;strokeColor=none;fillColor=none;align=left;verticalAlign=top;spacingLeft=4;spacingRight=4;overflow=hidden;rotatable=0;points=[[0,0.5],[1,0.5]];portConstraint=eastwest;whiteSpace=wrap;html=1;" parent="l2UFIXcgOA9KmyzxAS9a-17" vertex="1">
          <mxGeometry y="26" width="160" height="64" as="geometry" />
        </mxCell>
        <mxCell id="l2UFIXcgOA9KmyzxAS9a-19" value="" style="line;strokeWidth=1;fillColor=none;align=left;verticalAlign=middle;spacingTop=-1;spacingLeft=3;spacingRight=3;rotatable=0;labelPosition=right;points=[];portConstraint=eastwest;strokeColor=inherit;" parent="l2UFIXcgOA9KmyzxAS9a-17" vertex="1">
          <mxGeometry y="90" width="160" height="8" as="geometry" />
        </mxCell>
        <mxCell id="l2UFIXcgOA9KmyzxAS9a-20" value="+getX(): double&lt;div&gt;+getY(): double&lt;/div&gt;&lt;div&gt;+getDirection(): int&lt;/div&gt;&lt;div&gt;+startEngine(): void&lt;/div&gt;&lt;div&gt;+stopEngine(): void&lt;/div&gt;&lt;div&gt;+setX(): void&lt;/div&gt;&lt;div&gt;+setY(): void&lt;/div&gt;&lt;div&gt;+gas(): void&lt;/div&gt;&lt;div&gt;+brake(): void&amp;nbsp;&lt;/div&gt;&lt;div&gt;+move(): void&lt;/div&gt;" style="text;strokeColor=none;fillColor=none;align=left;verticalAlign=top;spacingLeft=4;spacingRight=4;overflow=hidden;rotatable=0;points=[[0,0.5],[1,0.5]];portConstraint=eastwest;whiteSpace=wrap;html=1;" parent="l2UFIXcgOA9KmyzxAS9a-17" vertex="1">
          <mxGeometry y="98" width="160" height="162" as="geometry" />
        </mxCell>
        <mxCell id="l2UFIXcgOA9KmyzxAS9a-21" value="car.Volvo240" style="swimlane;fontStyle=1;align=center;verticalAlign=top;childLayout=stackLayout;horizontal=1;startSize=26;horizontalStack=0;resizeParent=1;resizeParentMax=0;resizeLast=0;collapsible=1;marginBottom=0;whiteSpace=wrap;html=1;" parent="WIyWlLk6GJQsqaUBKTNV-1" vertex="1">
          <mxGeometry x="110" y="590" width="160" height="34" as="geometry" />
        </mxCell>
        <mxCell id="l2UFIXcgOA9KmyzxAS9a-23" value="" style="line;strokeWidth=1;fillColor=none;align=left;verticalAlign=middle;spacingTop=-1;spacingLeft=3;spacingRight=3;rotatable=0;labelPosition=right;points=[];portConstraint=eastwest;strokeColor=inherit;" parent="l2UFIXcgOA9KmyzxAS9a-21" vertex="1">
          <mxGeometry y="26" width="160" height="8" as="geometry" />
        </mxCell>
        <mxCell id="l2UFIXcgOA9KmyzxAS9a-25" value="car.Saab95" style="swimlane;fontStyle=1;align=center;verticalAlign=top;childLayout=stackLayout;horizontal=1;startSize=26;horizontalStack=0;resizeParent=1;resizeParentMax=0;resizeLast=0;collapsible=1;marginBottom=0;whiteSpace=wrap;html=1;" parent="WIyWlLk6GJQsqaUBKTNV-1" vertex="1">
          <mxGeometry x="110" y="695" width="160" height="34" as="geometry" />
        </mxCell>
        <mxCell id="l2UFIXcgOA9KmyzxAS9a-27" value="" style="line;strokeWidth=1;fillColor=none;align=left;verticalAlign=middle;spacingTop=-1;spacingLeft=3;spacingRight=3;rotatable=0;labelPosition=right;points=[];portConstraint=eastwest;strokeColor=inherit;" parent="l2UFIXcgOA9KmyzxAS9a-25" vertex="1">
          <mxGeometry y="26" width="160" height="8" as="geometry" />
        </mxCell>
        <mxCell id="l2UFIXcgOA9KmyzxAS9a-29" value="car.Scania" style="swimlane;fontStyle=1;align=center;verticalAlign=top;childLayout=stackLayout;horizontal=1;startSize=26;horizontalStack=0;resizeParent=1;resizeParentMax=0;resizeLast=0;collapsible=1;marginBottom=0;whiteSpace=wrap;html=1;" parent="WIyWlLk6GJQsqaUBKTNV-1" vertex="1">
          <mxGeometry x="110" y="452" width="160" height="100" as="geometry" />
        </mxCell>
        <mxCell id="l2UFIXcgOA9KmyzxAS9a-30" value="-rampBody: double" style="text;strokeColor=none;fillColor=none;align=left;verticalAlign=top;spacingLeft=4;spacingRight=4;overflow=hidden;rotatable=0;points=[[0,0.5],[1,0.5]];portConstraint=eastwest;whiteSpace=wrap;html=1;" parent="l2UFIXcgOA9KmyzxAS9a-29" vertex="1">
          <mxGeometry y="26" width="160" height="26" as="geometry" />
        </mxCell>
        <mxCell id="l2UFIXcgOA9KmyzxAS9a-31" value="" style="line;strokeWidth=1;fillColor=none;align=left;verticalAlign=middle;spacingTop=-1;spacingLeft=3;spacingRight=3;rotatable=0;labelPosition=right;points=[];portConstraint=eastwest;strokeColor=inherit;" parent="l2UFIXcgOA9KmyzxAS9a-29" vertex="1">
          <mxGeometry y="52" width="160" height="8" as="geometry" />
        </mxCell>
        <mxCell id="l2UFIXcgOA9KmyzxAS9a-32" value="+putRampDown()&lt;div&gt;+putRampUp()&lt;/div&gt;" style="text;strokeColor=none;fillColor=none;align=left;verticalAlign=top;spacingLeft=4;spacingRight=4;overflow=hidden;rotatable=0;points=[[0,0.5],[1,0.5]];portConstraint=eastwest;whiteSpace=wrap;html=1;" parent="l2UFIXcgOA9KmyzxAS9a-29" vertex="1">
          <mxGeometry y="60" width="160" height="40" as="geometry" />
        </mxCell>
        <mxCell id="l2UFIXcgOA9KmyzxAS9a-49" value="gui.DrawPanel" style="swimlane;fontStyle=1;align=center;verticalAlign=top;childLayout=stackLayout;horizontal=1;startSize=26;horizontalStack=0;resizeParent=1;resizeParentMax=0;resizeLast=0;collapsible=1;marginBottom=0;whiteSpace=wrap;html=1;" parent="WIyWlLk6GJQsqaUBKTNV-1" vertex="1">
          <mxGeometry x="1270" y="272" width="220" height="180" as="geometry" />
        </mxCell>
        <mxCell id="l2UFIXcgOA9KmyzxAS9a-50" value="-carImages: ArrayList&amp;lt;BufferedImage&amp;gt;&lt;div&gt;-carPoints: ArrayList&amp;lt;Point&amp;gt;&lt;/div&gt;&lt;div&gt;-workshopImage: BufferedImage&lt;/div&gt;&lt;div&gt;-workshopPoint: Point&lt;/div&gt;" style="text;strokeColor=none;fillColor=none;align=left;verticalAlign=top;spacingLeft=4;spacingRight=4;overflow=hidden;rotatable=0;points=[[0,0.5],[1,0.5]];portConstraint=eastwest;whiteSpace=wrap;html=1;" parent="l2UFIXcgOA9KmyzxAS9a-49" vertex="1">
          <mxGeometry y="26" width="220" height="74" as="geometry" />
        </mxCell>
        <mxCell id="l2UFIXcgOA9KmyzxAS9a-51" value="" style="line;strokeWidth=1;fillColor=none;align=left;verticalAlign=middle;spacingTop=-1;spacingLeft=3;spacingRight=3;rotatable=0;labelPosition=right;points=[];portConstraint=eastwest;strokeColor=inherit;" parent="l2UFIXcgOA9KmyzxAS9a-49" vertex="1">
          <mxGeometry y="100" width="220" height="8" as="geometry" />
        </mxCell>
        <mxCell id="l2UFIXcgOA9KmyzxAS9a-52" value="+moveCar: void&lt;div&gt;-isCollidingWithWorkshop(): boolean&lt;/div&gt;&lt;div&gt;+checkWorkshop(): boolean&lt;/div&gt;&lt;div&gt;#paintComponent: void&lt;/div&gt;" style="text;strokeColor=none;fillColor=none;align=left;verticalAlign=top;spacingLeft=4;spacingRight=4;overflow=hidden;rotatable=0;points=[[0,0.5],[1,0.5]];portConstraint=eastwest;whiteSpace=wrap;html=1;" parent="l2UFIXcgOA9KmyzxAS9a-49" vertex="1">
          <mxGeometry y="108" width="220" height="72" as="geometry" />
        </mxCell>
        <mxCell id="l2UFIXcgOA9KmyzxAS9a-89" value="gui.CarView" style="swimlane;fontStyle=1;align=center;verticalAlign=top;childLayout=stackLayout;horizontal=1;startSize=26;horizontalStack=0;resizeParent=1;resizeParentMax=0;resizeLast=0;collapsible=1;marginBottom=0;whiteSpace=wrap;html=1;" parent="WIyWlLk6GJQsqaUBKTNV-1" vertex="1">
          <mxGeometry x="1010" y="310" width="170" height="104" as="geometry" />
        </mxCell>
        <mxCell id="l2UFIXcgOA9KmyzxAS9a-90" value="-carC: CarController&lt;div&gt;&lt;span style=&quot;color: rgb(12, 13, 14); font-family: -apple-system, BlinkMacSystemFont, &amp;quot;Segoe UI Adjusted&amp;quot;, &amp;quot;Segoe UI&amp;quot;, &amp;quot;Liberation Sans&amp;quot;, sans-serif; font-size: 15px; background-color: rgb(255, 255, 255);&quot;&gt;~drawPanel: DrawPanel&lt;/span&gt;&lt;/div&gt;" style="text;strokeColor=none;fillColor=none;align=left;verticalAlign=top;spacingLeft=4;spacingRight=4;overflow=hidden;rotatable=0;points=[[0,0.5],[1,0.5]];portConstraint=eastwest;whiteSpace=wrap;html=1;" parent="l2UFIXcgOA9KmyzxAS9a-89" vertex="1">
          <mxGeometry y="26" width="170" height="44" as="geometry" />
        </mxCell>
        <mxCell id="l2UFIXcgOA9KmyzxAS9a-91" value="" style="line;strokeWidth=1;fillColor=none;align=left;verticalAlign=middle;spacingTop=-1;spacingLeft=3;spacingRight=3;rotatable=0;labelPosition=right;points=[];portConstraint=eastwest;strokeColor=inherit;" parent="l2UFIXcgOA9KmyzxAS9a-89" vertex="1">
          <mxGeometry y="70" width="170" height="8" as="geometry" />
        </mxCell>
        <mxCell id="l2UFIXcgOA9KmyzxAS9a-92" value="-initComponents(): void" style="text;strokeColor=none;fillColor=none;align=left;verticalAlign=top;spacingLeft=4;spacingRight=4;overflow=hidden;rotatable=0;points=[[0,0.5],[1,0.5]];portConstraint=eastwest;whiteSpace=wrap;html=1;" parent="l2UFIXcgOA9KmyzxAS9a-89" vertex="1">
          <mxGeometry y="78" width="170" height="26" as="geometry" />
        </mxCell>
        <mxCell id="0tlEyhD8NN70e6mfab_2-0" value="«interface»&lt;br&gt;&lt;b&gt;Movable&lt;/b&gt;" style="html=1;whiteSpace=wrap;" parent="WIyWlLk6GJQsqaUBKTNV-1" vertex="1">
          <mxGeometry x="525" y="120" width="110" height="50" as="geometry" />
        </mxCell>
        <mxCell id="0tlEyhD8NN70e6mfab_2-1" value="«interface»&lt;br&gt;&lt;b&gt;Ramp&lt;/b&gt;" style="html=1;whiteSpace=wrap;" parent="WIyWlLk6GJQsqaUBKTNV-1" vertex="1">
          <mxGeometry x="135" y="330" width="110" height="50" as="geometry" />
        </mxCell>
        <mxCell id="l2UFIXcgOA9KmyzxAS9a-66" value="javax.swing" style="shape=folder;fontStyle=1;tabWidth=110;tabHeight=30;tabPosition=left;html=1;boundedLbl=1;labelInHeader=1;container=1;collapsible=0;recursiveResize=0;whiteSpace=wrap;aspect=fixed;fontSize=12;" parent="WIyWlLk6GJQsqaUBKTNV-1" vertex="1">
          <mxGeometry x="1010.0000000000001" y="-170" width="108.3307327738616" height="151.66302588340625" as="geometry" />
        </mxCell>
        <mxCell id="l2UFIXcgOA9KmyzxAS9a-67" value="&lt;font&gt;JFrame&lt;/font&gt;&lt;div&gt;&lt;font&gt;JPanel&lt;/font&gt;&lt;/div&gt;&lt;div&gt;&lt;font&gt;JButton&lt;/font&gt;&lt;/div&gt;&lt;div&gt;&lt;font&gt;Timer&lt;/font&gt;&lt;/div&gt;&lt;div&gt;&lt;font&gt;JSlider&lt;/font&gt;&lt;/div&gt;" style="html=1;whiteSpace=wrap;aspect=fixed;fontSize=12;" parent="l2UFIXcgOA9KmyzxAS9a-66" vertex="1">
          <mxGeometry width="70.71" height="90" relative="1" as="geometry">
            <mxPoint x="20" y="50" as="offset" />
          </mxGeometry>
        </mxCell>
        <mxCell id="l2UFIXcgOA9KmyzxAS9a-72" value="java.awt" style="shape=folder;fontStyle=1;tabWidth=110;tabHeight=30;tabPosition=left;html=1;boundedLbl=1;labelInHeader=1;container=1;collapsible=0;recursiveResize=0;whiteSpace=wrap;aspect=fixed;fontSize=12;" parent="WIyWlLk6GJQsqaUBKTNV-1" vertex="1">
          <mxGeometry x="1325.8366666666668" y="820" width="108.3307327738616" height="151.66302588340625" as="geometry" />
        </mxCell>
        <mxCell id="l2UFIXcgOA9KmyzxAS9a-73" value="&lt;span&gt;Graphics&lt;/span&gt;&lt;div&gt;&lt;span&gt;Color&lt;/span&gt;&lt;/div&gt;&lt;div&gt;&lt;span&gt;Font&lt;/span&gt;&lt;/div&gt;&lt;div&gt;&lt;span&gt;Dimension&lt;/span&gt;&lt;/div&gt;&lt;div&gt;&lt;span&gt;Toolkit&lt;/span&gt;&lt;/div&gt;&lt;div&gt;&lt;span&gt;Point&lt;/span&gt;&lt;/div&gt;" style="html=1;whiteSpace=wrap;aspect=fixed;fontSize=12;" parent="l2UFIXcgOA9KmyzxAS9a-72" vertex="1">
          <mxGeometry width="70.71" height="90" relative="1" as="geometry">
            <mxPoint x="20" y="50" as="offset" />
          </mxGeometry>
        </mxCell>
        <mxCell id="l2UFIXcgOA9KmyzxAS9a-74" value="java.awt.event" style="shape=folder;fontStyle=1;tabWidth=110;tabHeight=30;tabPosition=left;html=1;boundedLbl=1;labelInHeader=1;container=1;collapsible=0;recursiveResize=0;whiteSpace=wrap;aspect=fixed;fontSize=12;" parent="WIyWlLk6GJQsqaUBKTNV-1" vertex="1">
          <mxGeometry x="1040.83" y="819.9966666666667" width="108.3307327738616" height="151.66302588340625" as="geometry" />
        </mxCell>
        <mxCell id="l2UFIXcgOA9KmyzxAS9a-75" value="&lt;span&gt;ActionEvent&lt;/span&gt;&lt;div&gt;&lt;span&gt;ActionListener&lt;/span&gt;&lt;/div&gt;" style="html=1;whiteSpace=wrap;aspect=fixed;fontSize=12;" parent="l2UFIXcgOA9KmyzxAS9a-74" vertex="1">
          <mxGeometry width="70.71" height="90" relative="1" as="geometry">
            <mxPoint x="20" y="50" as="offset" />
          </mxGeometry>
        </mxCell>
        <mxCell id="l2UFIXcgOA9KmyzxAS9a-82" value="java.util" style="shape=folder;fontStyle=1;tabWidth=110;tabHeight=30;tabPosition=left;html=1;boundedLbl=1;labelInHeader=1;container=1;collapsible=0;recursiveResize=0;whiteSpace=wrap;aspect=fixed;fontSize=12;" parent="WIyWlLk6GJQsqaUBKTNV-1" vertex="1">
          <mxGeometry x="760" y="-219.99666666666667" width="108.3307327738616" height="151.66302588340625" as="geometry" />
        </mxCell>
        <mxCell id="l2UFIXcgOA9KmyzxAS9a-83" value="&lt;span&gt;ArrayList&lt;/span&gt;" style="html=1;whiteSpace=wrap;aspect=fixed;fontSize=12;" parent="l2UFIXcgOA9KmyzxAS9a-82" vertex="1">
          <mxGeometry width="70.71" height="90" relative="1" as="geometry">
            <mxPoint x="20" y="50" as="offset" />
          </mxGeometry>
        </mxCell>
        <mxCell id="8Cvh2PA15Y51MKp_gLaj-8" value="has a" style="endArrow=open;endFill=1;endSize=12;html=1;rounded=0;entryX=0.5;entryY=1;entryDx=0;entryDy=0;entryPerimeter=0;exitX=0.5;exitY=0;exitDx=0;exitDy=0;" parent="WIyWlLk6GJQsqaUBKTNV-1" source="zkfFHV4jXpPFQw0GAbJ--0" target="l2UFIXcgOA9KmyzxAS9a-82" edge="1">
          <mxGeometry width="160" relative="1" as="geometry">
            <mxPoint x="824" y="300" as="sourcePoint" />
            <mxPoint x="960" y="430" as="targetPoint" />
          </mxGeometry>
        </mxCell>
        <mxCell id="8Cvh2PA15Y51MKp_gLaj-9" value="has a" style="endArrow=open;endFill=1;endSize=12;html=1;rounded=0;exitX=1;exitY=0.5;exitDx=0;exitDy=0;entryX=0;entryY=0.5;entryDx=0;entryDy=0;" parent="WIyWlLk6GJQsqaUBKTNV-1" source="zkfFHV4jXpPFQw0GAbJ--5" target="l2UFIXcgOA9KmyzxAS9a-90" edge="1">
          <mxGeometry width="160" relative="1" as="geometry">
            <mxPoint x="950" y="470" as="sourcePoint" />
            <mxPoint x="1110" y="470" as="targetPoint" />
            <Array as="points" />
          </mxGeometry>
        </mxCell>
        <mxCell id="8Cvh2PA15Y51MKp_gLaj-11" value="implements" style="endArrow=block;dashed=1;endFill=0;endSize=12;html=1;rounded=0;exitX=1;exitY=0.5;exitDx=0;exitDy=0;entryX=0;entryY=0;entryDx=0;entryDy=90.83151294170312;entryPerimeter=0;" parent="WIyWlLk6GJQsqaUBKTNV-1" source="l2UFIXcgOA9KmyzxAS9a-3" target="l2UFIXcgOA9KmyzxAS9a-74" edge="1">
          <mxGeometry width="160" relative="1" as="geometry">
            <mxPoint x="990" y="710" as="sourcePoint" />
            <mxPoint x="1150" y="710" as="targetPoint" />
          </mxGeometry>
        </mxCell>
        <mxCell id="8Cvh2PA15Y51MKp_gLaj-12" value="use" style="endArrow=open;endSize=12;dashed=1;html=1;rounded=0;" parent="WIyWlLk6GJQsqaUBKTNV-1" source="l2UFIXcgOA9KmyzxAS9a-0" target="l2UFIXcgOA9KmyzxAS9a-17" edge="1">
          <mxGeometry width="160" relative="1" as="geometry">
            <mxPoint x="840" y="750" as="sourcePoint" />
            <mxPoint x="1000" y="750" as="targetPoint" />
          </mxGeometry>
        </mxCell>
        <mxCell id="8Cvh2PA15Y51MKp_gLaj-15" value="TimeListener ligger i CarController" style="edgeStyle=orthogonalEdgeStyle;rounded=0;orthogonalLoop=1;jettySize=auto;html=1;entryX=0.5;entryY=1;entryDx=0;entryDy=0;" parent="WIyWlLk6GJQsqaUBKTNV-1" source="l2UFIXcgOA9KmyzxAS9a-0" target="zkfFHV4jXpPFQw0GAbJ--0" edge="1">
          <mxGeometry relative="1" as="geometry" />
        </mxCell>
        <mxCell id="l2UFIXcgOA9KmyzxAS9a-0" value="TimeListener&lt;div&gt;&lt;br&gt;&lt;/div&gt;" style="swimlane;fontStyle=1;align=center;verticalAlign=top;childLayout=stackLayout;horizontal=1;startSize=26;horizontalStack=0;resizeParent=1;resizeParentMax=0;resizeLast=0;collapsible=1;marginBottom=0;whiteSpace=wrap;html=1;" parent="WIyWlLk6GJQsqaUBKTNV-1" vertex="1">
          <mxGeometry x="744.17" y="585" width="160" height="110" as="geometry" />
        </mxCell>
        <mxCell id="l2UFIXcgOA9KmyzxAS9a-3" value="+actionPerformed(): void&lt;div&gt;&lt;br&gt;&lt;/div&gt;" style="text;strokeColor=none;fillColor=none;align=left;verticalAlign=top;spacingLeft=4;spacingRight=4;overflow=hidden;rotatable=0;points=[[0,0.5],[1,0.5]];portConstraint=eastwest;whiteSpace=wrap;html=1;" parent="l2UFIXcgOA9KmyzxAS9a-0" vertex="1">
          <mxGeometry y="26" width="160" height="50" as="geometry" />
        </mxCell>
        <mxCell id="l2UFIXcgOA9KmyzxAS9a-1" value="&lt;div&gt;&lt;br&gt;&lt;/div&gt;" style="text;strokeColor=none;fillColor=none;align=left;verticalAlign=top;spacingLeft=4;spacingRight=4;overflow=hidden;rotatable=0;points=[[0,0.5],[1,0.5]];portConstraint=eastwest;whiteSpace=wrap;html=1;" parent="l2UFIXcgOA9KmyzxAS9a-0" vertex="1">
          <mxGeometry y="76" width="160" height="26" as="geometry" />
        </mxCell>
        <mxCell id="l2UFIXcgOA9KmyzxAS9a-2" value="" style="line;strokeWidth=1;fillColor=none;align=left;verticalAlign=middle;spacingTop=-1;spacingLeft=3;spacingRight=3;rotatable=0;labelPosition=right;points=[];portConstraint=eastwest;strokeColor=inherit;" parent="l2UFIXcgOA9KmyzxAS9a-0" vertex="1">
          <mxGeometry y="102" width="160" height="8" as="geometry" />
        </mxCell>
        <mxCell id="8Cvh2PA15Y51MKp_gLaj-16" value="use" style="endArrow=open;endSize=12;dashed=1;html=1;rounded=0;" parent="WIyWlLk6GJQsqaUBKTNV-1" source="zkfFHV4jXpPFQw0GAbJ--0" target="l2UFIXcgOA9KmyzxAS9a-17" edge="1">
          <mxGeometry width="160" relative="1" as="geometry">
            <mxPoint x="900" y="540" as="sourcePoint" />
            <mxPoint x="1030" y="655" as="targetPoint" />
          </mxGeometry>
        </mxCell>
        <mxCell id="8Cvh2PA15Y51MKp_gLaj-17" value="has a Timer" style="endArrow=open;endFill=1;endSize=12;html=1;rounded=0;" parent="WIyWlLk6GJQsqaUBKTNV-1" source="zkfFHV4jXpPFQw0GAbJ--0" target="l2UFIXcgOA9KmyzxAS9a-66" edge="1">
          <mxGeometry width="160" relative="1" as="geometry">
            <mxPoint x="620" y="571.66" as="sourcePoint" />
            <mxPoint x="726" y="476.65999999999997" as="targetPoint" />
            <Array as="points" />
          </mxGeometry>
        </mxCell>
        <mxCell id="8Cvh2PA15Y51MKp_gLaj-18" value="extends JFrame" style="endArrow=block;endSize=16;endFill=0;html=1;rounded=0;exitX=0.5;exitY=0;exitDx=0;exitDy=0;entryX=0.5;entryY=1;entryDx=0;entryDy=0;entryPerimeter=0;" parent="WIyWlLk6GJQsqaUBKTNV-1" source="l2UFIXcgOA9KmyzxAS9a-89" target="l2UFIXcgOA9KmyzxAS9a-66" edge="1">
          <mxGeometry x="-0.0002" width="160" relative="1" as="geometry">
            <mxPoint x="1170" y="250" as="sourcePoint" />
            <mxPoint x="1330" y="250" as="targetPoint" />
            <mxPoint as="offset" />
          </mxGeometry>
        </mxCell>
        <mxCell id="8Cvh2PA15Y51MKp_gLaj-20" value="has a" style="endArrow=open;endFill=1;endSize=12;html=1;rounded=0;" parent="WIyWlLk6GJQsqaUBKTNV-1" source="l2UFIXcgOA9KmyzxAS9a-89" target="l2UFIXcgOA9KmyzxAS9a-49" edge="1">
          <mxGeometry width="160" relative="1" as="geometry">
            <mxPoint x="914" y="463" as="sourcePoint" />
            <mxPoint x="1020" y="368" as="targetPoint" />
            <Array as="points" />
          </mxGeometry>
        </mxCell>
        <mxCell id="8Cvh2PA15Y51MKp_gLaj-23" value="1" style="endArrow=open;html=1;endSize=12;startArrow=diamondThin;startSize=14;startFill=0;edgeStyle=orthogonalEdgeStyle;align=left;verticalAlign=bottom;rounded=0;" parent="WIyWlLk6GJQsqaUBKTNV-1" source="l2UFIXcgOA9KmyzxAS9a-89" target="zkfFHV4jXpPFQw0GAbJ--0" edge="1">
          <mxGeometry x="-1" y="3" relative="1" as="geometry">
            <mxPoint x="950" y="361.29" as="sourcePoint" />
            <mxPoint x="1110" y="361.29" as="targetPoint" />
            <Array as="points">
              <mxPoint x="957" y="340" />
              <mxPoint x="957" y="350" />
            </Array>
          </mxGeometry>
        </mxCell>
        <mxCell id="8Cvh2PA15Y51MKp_gLaj-24" value="use" style="endArrow=open;endSize=12;dashed=1;html=1;rounded=0;" parent="WIyWlLk6GJQsqaUBKTNV-1" source="l2UFIXcgOA9KmyzxAS9a-89" target="l2UFIXcgOA9KmyzxAS9a-74" edge="1">
          <mxGeometry width="160" relative="1" as="geometry">
            <mxPoint x="1196" y="576" as="sourcePoint" />
            <mxPoint x="1241" y="540" as="targetPoint" />
          </mxGeometry>
        </mxCell>
        <mxCell id="8Cvh2PA15Y51MKp_gLaj-25" value="has a" style="endArrow=open;endFill=1;endSize=12;html=1;rounded=0;entryX=0.894;entryY=0.13;entryDx=0;entryDy=0;entryPerimeter=0;" parent="WIyWlLk6GJQsqaUBKTNV-1" source="l2UFIXcgOA9KmyzxAS9a-49" target="l2UFIXcgOA9KmyzxAS9a-82" edge="1">
          <mxGeometry width="160" relative="1" as="geometry">
            <mxPoint x="1180" y="145" as="sourcePoint" />
            <mxPoint x="1286" y="50" as="targetPoint" />
            <Array as="points">
              <mxPoint x="1390" y="-200" />
            </Array>
          </mxGeometry>
        </mxCell>
        <mxCell id="8Cvh2PA15Y51MKp_gLaj-26" value="has a" style="endArrow=open;endFill=1;endSize=12;html=1;rounded=0;entryX=0;entryY=0;entryDx=54.1653663869308;entryDy=0;entryPerimeter=0;" parent="WIyWlLk6GJQsqaUBKTNV-1" source="l2UFIXcgOA9KmyzxAS9a-49" target="l2UFIXcgOA9KmyzxAS9a-72" edge="1">
          <mxGeometry width="160" relative="1" as="geometry">
            <mxPoint x="1280" y="560" as="sourcePoint" />
            <mxPoint x="1370" y="570" as="targetPoint" />
            <Array as="points" />
          </mxGeometry>
        </mxCell>
        <mxCell id="8Cvh2PA15Y51MKp_gLaj-27" value="extends JPanel" style="endArrow=block;endSize=16;endFill=0;html=1;rounded=0;" parent="WIyWlLk6GJQsqaUBKTNV-1" source="l2UFIXcgOA9KmyzxAS9a-49" target="l2UFIXcgOA9KmyzxAS9a-66" edge="1">
          <mxGeometry x="-0.0002" width="160" relative="1" as="geometry">
            <mxPoint x="1105" y="320" as="sourcePoint" />
            <mxPoint x="1074" y="192" as="targetPoint" />
            <mxPoint as="offset" />
            <Array as="points">
              <mxPoint x="1210" y="260" />
            </Array>
          </mxGeometry>
        </mxCell>
        <mxCell id="8Cvh2PA15Y51MKp_gLaj-28" value="implements" style="endArrow=block;dashed=1;endFill=0;endSize=12;html=1;rounded=0;" parent="WIyWlLk6GJQsqaUBKTNV-1" source="l2UFIXcgOA9KmyzxAS9a-17" target="0tlEyhD8NN70e6mfab_2-0" edge="1">
          <mxGeometry width="160" relative="1" as="geometry">
            <mxPoint x="234" y="302" as="sourcePoint" />
            <mxPoint x="460" y="422" as="targetPoint" />
            <Array as="points" />
          </mxGeometry>
        </mxCell>
        <mxCell id="8Cvh2PA15Y51MKp_gLaj-29" value="implements" style="endArrow=block;dashed=1;endFill=0;endSize=12;html=1;rounded=0;" parent="WIyWlLk6GJQsqaUBKTNV-1" source="l2UFIXcgOA9KmyzxAS9a-29" target="0tlEyhD8NN70e6mfab_2-1" edge="1">
          <mxGeometry width="160" relative="1" as="geometry">
            <mxPoint x="122" y="334" as="sourcePoint" />
            <mxPoint x="348" y="454" as="targetPoint" />
            <Array as="points" />
          </mxGeometry>
        </mxCell>
        <mxCell id="8Cvh2PA15Y51MKp_gLaj-30" value="extends&lt;div&gt;&lt;br&gt;&lt;/div&gt;" style="endArrow=block;endSize=16;endFill=0;html=1;rounded=0;exitX=1;exitY=0.5;exitDx=0;exitDy=0;" parent="WIyWlLk6GJQsqaUBKTNV-1" source="l2UFIXcgOA9KmyzxAS9a-30" target="l2UFIXcgOA9KmyzxAS9a-17" edge="1">
          <mxGeometry x="-0.0002" width="160" relative="1" as="geometry">
            <mxPoint x="411" y="488" as="sourcePoint" />
            <mxPoint x="380" y="360" as="targetPoint" />
            <mxPoint as="offset" />
          </mxGeometry>
        </mxCell>
        <mxCell id="8Cvh2PA15Y51MKp_gLaj-31" value="extends&lt;div&gt;&lt;br&gt;&lt;/div&gt;" style="endArrow=block;endSize=16;endFill=0;html=1;rounded=0;" parent="WIyWlLk6GJQsqaUBKTNV-1" source="l2UFIXcgOA9KmyzxAS9a-21" target="l2UFIXcgOA9KmyzxAS9a-20" edge="1">
          <mxGeometry x="-0.0002" width="160" relative="1" as="geometry">
            <mxPoint x="310" y="562" as="sourcePoint" />
            <mxPoint x="440" y="618" as="targetPoint" />
            <mxPoint as="offset" />
          </mxGeometry>
        </mxCell>
        <mxCell id="8Cvh2PA15Y51MKp_gLaj-32" value="extends&lt;div&gt;&lt;br&gt;&lt;/div&gt;" style="endArrow=block;endSize=16;endFill=0;html=1;rounded=0;" parent="WIyWlLk6GJQsqaUBKTNV-1" source="l2UFIXcgOA9KmyzxAS9a-25" target="l2UFIXcgOA9KmyzxAS9a-20" edge="1">
          <mxGeometry x="-0.0002" width="160" relative="1" as="geometry">
            <mxPoint x="349" y="690" as="sourcePoint" />
            <mxPoint x="479" y="746" as="targetPoint" />
            <mxPoint as="offset" />
          </mxGeometry>
        </mxCell>
        <mxCell id="ZMk_bHpHomdu8u_3q0VT-0" value="use" style="endArrow=open;endSize=12;dashed=1;html=1;rounded=0;exitX=0.975;exitY=0.28;exitDx=0;exitDy=0;exitPerimeter=0;" edge="1" parent="WIyWlLk6GJQsqaUBKTNV-1" source="l2UFIXcgOA9KmyzxAS9a-3" target="l2UFIXcgOA9KmyzxAS9a-49">
          <mxGeometry width="160" relative="1" as="geometry">
            <mxPoint x="1200" y="437" as="sourcePoint" />
            <mxPoint x="1200" y="843" as="targetPoint" />
          </mxGeometry>
        </mxCell>
        <mxCell id="ZMk_bHpHomdu8u_3q0VT-1" value="use" style="endArrow=open;endSize=12;dashed=1;html=1;rounded=0;exitX=0.975;exitY=0.28;exitDx=0;exitDy=0;exitPerimeter=0;" edge="1" parent="WIyWlLk6GJQsqaUBKTNV-1" target="l2UFIXcgOA9KmyzxAS9a-89">
          <mxGeometry width="160" relative="1" as="geometry">
            <mxPoint x="904.17" y="585" as="sourcePoint" />
            <mxPoint x="1274.17" y="382" as="targetPoint" />
          </mxGeometry>
        </mxCell>
      </root>
    </mxGraphModel>
  </diagram>
</mxfile>
